<svg xmlns="http://www.w3.org/2000/svg" width="300" height="296" fill="none"><g clip-path="url(#a)"><mask id="b" width="297" height="297" x="0" y="-1" maskUnits="userSpaceOnUse" style="mask-type:luminance"><path fill="#fff" d="M225.894 278.029c-62.372 36.232-138.448 9.762-180.086-31.864-54.55-54.526-59.064-144.118-20.543-197.238C41.282 26.85 74.722-3.748 110.425.377c30.262 3.495 34.293 28.652 84.682 68.068 57.128 44.691 81.822 35.721 95.149 63.922 19.865 42.017-10.235 114.217-64.362 145.662Z"/></mask><g mask="url(#b)"><path fill="#fff" d="m299.644 149.872-104.639 66.655a6.536 6.536 0 0 0-1.849 1.77 6.548 6.548 0 0 0-1.088 4.902c.15.848.465 1.659.928 2.386l34.077 53.49a6.56 6.56 0 0 0 9.059 2.009l63.512-40.457v-90.755Z"/><path fill="#0F0F0F" d="M232.619 282.467a6.917 6.917 0 0 1-5.845-3.2l-34.077-53.49a6.921 6.921 0 0 1 2.117-9.543l104.641-66.655a.362.362 0 0 1 .361-.011.363.363 0 0 1 .184.31v90.757a.352.352 0 0 1-.161.3l-63.511 40.45a6.878 6.878 0 0 1-3.709 1.082Zm66.671-131.948-104.094 66.307a6.216 6.216 0 0 0-1.9 8.573l34.077 53.49a6.212 6.212 0 0 0 8.573 1.9l63.348-40.353-.004-89.917Z"/><path fill="#0F0F0F" d="M199.656 226.686a.35.35 0 0 1-.333-.253.356.356 0 0 1 .141-.394c5.284-3.371 10.57-6.754 15.86-10.149 12.602-8.077 25.635-16.428 38.519-24.489a.355.355 0 0 1 .377.602c-12.881 8.059-25.912 16.409-38.513 24.485-5.293 3.391-10.577 6.775-15.852 10.15a.355.355 0 0 1-.199.048ZM202.045 218.028a1.676 1.676 0 0 1-.81 2.471 1.688 1.688 0 0 1-1.825-.405 1.68 1.68 0 0 1-.324-1.841 1.673 1.673 0 0 1 1.248-.979 1.684 1.684 0 0 1 1.711.754ZM207.721 214.411a1.68 1.68 0 0 1-1.782 2.546 1.689 1.689 0 0 1-.852-.478 1.688 1.688 0 0 1-.325-1.841 1.687 1.687 0 0 1 1.248-.98 1.685 1.685 0 0 1 1.711.753ZM213.397 210.796a1.684 1.684 0 0 1-1.783 2.547 1.687 1.687 0 0 1-1.292-1.35 1.681 1.681 0 0 1 3.075-1.197ZM232.554 198.951a.354.354 0 0 1-.18-.662c4.044-2.356 7.927-4.923 11.683-7.404 3.199-2.114 6.509-4.303 9.867-6.323a.354.354 0 0 1 .544.389.355.355 0 0 1-.177.219c-3.348 2.014-6.65 4.196-9.843 6.308-3.761 2.486-7.65 5.058-11.718 7.426a.349.349 0 0 1-.176.047ZM216.802 208.979a.345.345 0 0 1-.207-.073.347.347 0 0 1-.124-.181.355.355 0 0 1 .14-.393l7.048-4.49a.36.36 0 0 1 .263-.039.355.355 0 0 1 .119.639l-7.048 4.489a.347.347 0 0 1-.191.048ZM232.172 268.953a.322.322 0 0 1-.076 0 .354.354 0 0 1-.223-.162l-23.175-36.377a.353.353 0 0 1 .11-.485l36.379-23.174a.357.357 0 0 1 .485.108l23.174 36.377a.355.355 0 0 1-.109.486l-36.379 23.173a.342.342 0 0 1-.186.054Zm-22.683-36.623 22.791 35.779 35.781-22.792-22.791-35.779-35.781 22.792ZM260.013 199.716l-7.944 5.06 5.062 7.945 7.944-5.06-5.062-7.945ZM299.645 174.48l-34.196 21.783 5.062 7.943 29.134-18.559V174.48ZM269.069 213.931l-7.944 5.06 5.061 7.944 7.944-5.061-5.061-7.943ZM299.645 194.466l-25.139 16.013 5.061 7.945 20.078-12.791v-11.167ZM278.127 228.147l-7.944 5.061 5.061 7.943 7.944-5.061-5.061-7.943Z"/><path fill="#fff" d="m299.644 214.45-16.082 10.245 5.062 7.945 11.02-7.022V214.45Z"/></g><path fill="#0F0F0F" d="m80.093 267.618-.822-2.997-3.397.162a12.901 12.901 0 0 0-1.092-1.875l1.799-2.879-2.211-2.202-2.864 1.831a13.198 13.198 0 0 0-1.88-1.072l.116-3.397-3.009-.789-1.563 3.013a12.967 12.967 0 0 0-2.167.016l-1.597-2.998-3.002.821.162 3.397c-.654.31-1.282.675-1.875 1.09l-2.88-1.797-2.186 2.213 1.831 2.863c-.41.596-.768 1.225-1.073 1.881l-3.396-.116-.79 3.008 3.014 1.563c-.055.721-.05 1.446.016 2.167l-3 1.596.821 3.002 3.397-.161c.31.654.675 1.28 1.09 1.873l-1.797 2.879 2.205 2.188 2.863-1.831c.597.409 1.226.768 1.881 1.073l-.116 3.397 3.009.789 1.562-3.014c.722.056 1.447.05 2.168-.016l1.596 3.001 3.002-.822-.161-3.397c.654-.31 1.28-.675 1.873-1.091l2.879 1.798 2.189-2.213-1.825-2.85c.408-.596.767-1.225 1.072-1.881l3.397.117.79-3.009-3.014-1.562a12.95 12.95 0 0 0-.016-2.168l3-1.601Zm-13.821 10.475a8.014 8.014 0 0 1-10.106-7.157 8.009 8.009 0 0 1 15.716-2.684 8.008 8.008 0 0 1-5.61 9.841ZM129.849 236.533l-1.406-5.135-5.81.263a22.046 22.046 0 0 0-1.867-3.205l3.074-4.927-3.784-3.745-4.899 3.135a22.153 22.153 0 0 0-3.219-1.834l.2-5.814-5.15-1.35-2.672 5.156a22.109 22.109 0 0 0-3.711.028l-2.732-5.134-5.136 1.406.264 5.81a21.948 21.948 0 0 0-3.205 1.865l-4.927-3.074-3.745 3.787 3.134 4.899a22.376 22.376 0 0 0-1.835 3.219l-5.813-.2-1.35 5.15 5.158 2.672a21.878 21.878 0 0 0 .025 3.71l-5.134 2.732 1.408 5.136 5.808-.266a21.937 21.937 0 0 0 1.867 3.206l-3.073 4.927 3.785 3.745 4.9-3.134c1.02.7 2.097 1.313 3.218 1.835l-.202 5.813 5.15 1.349 2.674-5.157c1.235.097 2.476.088 3.709-.025l2.732 5.127 5.136-1.407-.263-5.809a22.103 22.103 0 0 0 3.206-1.866l4.927 3.073 3.743-3.785-3.133-4.899a22.489 22.489 0 0 0 1.834-3.219l5.813.2 1.351-5.151-5.157-2.672a22.085 22.085 0 0 0-.027-3.709l5.134-2.726Zm-23.651 17.925a13.71 13.71 0 0 1-14.449-4.816 13.707 13.707 0 1 1 14.449 4.816Z"/><path fill="#fff" d="M2.926 126.726 63.88 244.878c-5.945-11.523 9.558-32.34 37.865-54.31a8.924 8.924 0 0 0 2.443-11.142L51.577 77.449c-2.579-4.998-9.09-6.415-13.49-2.912-26.584 21.178-40.914 41.038-35.16 52.189Z"/><path fill="#0F0F0F" d="M63.88 245.234a.36.36 0 0 1-.324-.193L2.611 126.889c-2.84-5.5-.945-13.351 5.477-22.698 6.161-8.97 16.459-19.32 29.778-29.924a9.282 9.282 0 0 1 11.419-.094 9.285 9.285 0 0 1 2.607 3.12l52.603 101.97a9.275 9.275 0 0 1-2.541 11.584c-14.121 10.959-25.084 21.675-31.704 30.996-6.764 9.523-8.861 17.427-6.068 22.86v.013a.358.358 0 0 1 .027.275.348.348 0 0 1-.179.21.355.355 0 0 1-.15.033ZM3.235 126.564 62.38 241.208c-1.529-11.779 12.617-30.346 39.145-50.922a8.568 8.568 0 0 0 2.346-10.698L51.261 77.612a8.574 8.574 0 0 0-12.952-2.795c-27.41 21.835-40.52 41.178-35.074 51.747Z"/><path fill="#fff" d="m1.97 133.325 60.954 118.152c-5.945-11.523 9.556-32.35 37.864-54.31a8.926 8.926 0 0 0 2.442-11.141L50.62 84.048c-2.578-4.998-9.089-6.415-13.489-2.912-26.583 21.178-40.915 41.038-35.16 52.189Z"/><path fill="#0F0F0F" d="M62.923 251.833a.359.359 0 0 1-.323-.193L1.655 133.488c-2.84-5.499-.945-13.351 5.477-22.698 6.161-8.971 16.459-19.32 29.778-29.924a9.284 9.284 0 0 1 14.026 3.027l52.61 101.976a9.28 9.28 0 0 1-2.542 11.584c-14.121 10.959-25.083 21.674-31.704 30.996-6.77 9.53-8.864 17.438-6.061 22.873a.359.359 0 0 1 .026.275.353.353 0 0 1-.18.21.333.333 0 0 1-.162.026ZM2.286 133.163 61.43 247.807c-1.527-11.778 12.617-30.346 39.145-50.922a8.568 8.568 0 0 0 2.345-10.696L50.306 84.211a8.573 8.573 0 0 0-12.951-2.795c-27.412 21.835-40.52 41.178-35.07 51.747Z"/><path fill="#fff" d="m141.931 27.146 52.695 102.146a8.936 8.936 0 0 0 11.055 4.278c43.445-16.157 78.174-19.34 85.173-5.774L229.899 9.643c-6.886-13.347-40.616-10.481-83.08 5.005a8.942 8.942 0 0 0-4.888 12.498Z"/><path fill="#0F0F0F" d="M202.575 134.487a9.297 9.297 0 0 1-8.264-5.032L141.615 27.31a9.294 9.294 0 0 1 5.082-12.995c21.191-7.729 40.205-12.34 54.98-13.337 15.267-1.028 25.137 1.912 28.537 8.504l60.949 118.151a.357.357 0 0 1-.633.323c-3.314-6.428-13.199-9.22-28.576-8.068-15.127 1.132-34.546 5.975-56.155 14.012a9.244 9.244 0 0 1-3.224.587ZM142.239 26.983l52.698 102.147a8.584 8.584 0 0 0 10.614 4.109c41.13-15.298 72.697-18.475 83.174-8.78L229.584 9.807c-6.586-12.764-39.024-10.732-82.642 5.176a8.582 8.582 0 0 0-5.634 8.51 8.578 8.578 0 0 0 .943 3.49h-.012Z"/><path fill="#fff" d="m140.975 33.746 52.697 102.146a8.938 8.938 0 0 0 11.055 4.278c43.445-16.157 78.172-19.34 85.171-5.775L228.943 16.243c-6.886-13.348-40.615-10.481-83.078 5.005a8.947 8.947 0 0 0-5.269 5.144 8.94 8.94 0 0 0 .379 7.354Z"/><path fill="#0F0F0F" d="M201.62 141.087a9.298 9.298 0 0 1-8.263-5.032L140.66 33.909a9.295 9.295 0 0 1 5.084-12.995c21.19-7.728 40.203-12.341 54.978-13.336 15.273-1.029 25.139 1.912 28.537 8.502l60.955 118.152a.354.354 0 0 1-.167.451.358.358 0 0 1-.464-.127c-3.316-6.428-13.198-9.22-28.577-8.068-15.134 1.132-34.545 5.984-56.156 14.015a9.228 9.228 0 0 1-3.23.584ZM141.284 33.582l52.697 102.148a8.59 8.59 0 0 0 10.615 4.108c41.13-15.298 72.697-18.475 83.174-8.779L228.628 16.406c-6.583-12.763-39.022-10.732-82.642 5.176a8.59 8.59 0 0 0-5.056 4.94 8.596 8.596 0 0 0 .365 7.06h-.011Z"/><path fill="#fff" d="M203.168 72.507a49.466 49.466 0 0 1-3.844 1.108c-8.439 2.045-10.16 0-32.228-.765-26.957-.94-36.072 1.697-42.431 4.477-3.623 1.587-6.491 3.286-11.522 6.262C96.029 93.717 91.649 100.1 87.196 98.667c-1.023-.332-2.045-1.076-2.969-2.507-6.847 5.161-14.648 4.019-18.925 2.769 0 .97.042 1.941.13 2.95.255 2.896.701 7.965 3.817 12.238 6.706 9.2 23.249 11.243 40.915 5.225-1.118 2.426-10.133 22.806.485 41.779 10.993 19.586 35.004 23.52 50.785 20.83 25.742-4.386 46.319-29.247 42.804-44.044-.605-2.546-3.27-6.224-8.573-13.478a264.252 264.252 0 0 0-15.959-19.756c4.311-.264 19.201-1.702 32.172-13.652a51.088 51.088 0 0 0 3.276-3.308c-7.386-2.471-10.621-10.085-11.986-15.206Z"/><path fill="#0F0F0F" d="M152.238 183.062c-6.169 0-12.455-.97-18.104-2.837-10.58-3.505-18.802-10.052-23.778-18.937-9.845-17.576-3.074-36.214-.836-41.361-17.632 5.789-33.86 3.568-40.548-5.608-3.175-4.354-3.619-9.401-3.882-12.417a35.234 35.234 0 0 1-.133-2.98.352.352 0 0 1 .142-.284.349.349 0 0 1 .313-.057c4.043 1.18 11.822 2.399 18.602-2.713a.354.354 0 0 1 .51.091c.793 1.226 1.728 2.02 2.78 2.362 2.462.795 5.032-1.06 10.15-4.754 3.585-2.588 8.496-6.135 15.505-10.284 5.105-3.022 7.918-4.69 11.56-6.28 6.133-2.686 14.986-5.47 42.586-4.507 8.843.307 14.411.818 18.476 1.192 6.119.561 8.652.794 13.656-.42a47.81 47.81 0 0 0 3.814-1.097.354.354 0 0 1 .456.244c1.475 5.524 4.714 12.603 11.757 14.96a.355.355 0 0 1 .15.571 52.374 52.374 0 0 1-3.298 3.332c-11.506 10.598-24.5 13.15-31.667 13.694a264.044 264.044 0 0 1 15.499 19.248c5.548 7.584 8.027 11.046 8.635 13.604 1.308 5.5-.576 12.479-5.306 19.63-8.335 12.604-23.167 22.357-37.783 24.848a55.208 55.208 0 0 1-9.256.76Zm-42.067-64.085a.363.363 0 0 1 .299.165c.032.05.051.108.056.167a.367.367 0 0 1-.031.173c-1.716 3.72-9.756 23.188.485 41.458 10.277 18.345 33.332 23.57 50.401 20.662 14.432-2.46 29.077-12.093 37.309-24.539 4.621-6.986 6.47-13.76 5.208-19.074-.6-2.528-3.413-6.371-8.518-13.35a266.508 266.508 0 0 0-15.936-19.734.356.356 0 0 1-.064-.372.354.354 0 0 1 .308-.218c6.893-.421 20.21-2.75 31.952-13.558a51.122 51.122 0 0 0 2.894-2.892c-6.837-2.562-10.081-9.407-11.608-14.907a47.672 47.672 0 0 1-3.515.998c-5.118 1.241-7.866.989-13.888.435-4.057-.372-9.612-.881-18.44-1.188-27.452-.955-36.221 1.797-42.279 4.45-3.604 1.578-6.402 3.234-11.485 6.241-6.98 4.133-11.874 7.667-15.456 10.244-5.313 3.835-7.98 5.761-10.784 4.852-1.116-.362-2.103-1.148-2.946-2.339-6.706 4.853-14.257 3.882-18.47 2.736.012.829.054 1.651.124 2.447.259 2.942.692 7.866 3.75 12.06 6.602 9.058 22.883 11.104 40.513 5.096a.384.384 0 0 1 .121-.013Z"/><path fill="#fff" d="m236.075 54.117-2.305 1.471 3.528-6.342a1.093 1.093 0 0 0-1.805-1.224l-4.691 5.744 3.224-8.106a1.48 1.48 0 0 0-1.937-1.923c-.362.151-.648.44-.797.802l-3.083 7.315 1.067-6.377c.127-.758-.438-1.5-1.208-1.494-.485 0-.941.281-1.132 1.22-.437 2.248-2.718 11.246-2.718 11.246s-.99-.354-2.264-2.087c-1.275-1.732-1.801-.775-1.801-.775-.781 2.642 1.113 5.527 2.493 7.189-4.673 4.254-11.161 8.952-19.492 11.731 1.369 5.121 4.604 12.735 11.987 15.205 8.087-8.93 11.059-18.556 12.175-23.402 3.258-1.34 8.77-7.363 9.997-8.735a.972.972 0 0 0-.581-1.606.973.973 0 0 0-.667.143l.01.005Z"/><path fill="#0F0F0F" d="M215.15 88.068a.336.336 0 0 1-.112-.018c-7.343-2.459-10.697-9.758-12.217-15.45a.351.351 0 0 1 .03-.26.351.351 0 0 1 .2-.169c6.771-2.256 13.201-6.101 19.116-11.432-1.545-1.927-3.109-4.667-2.345-7.252a.355.355 0 0 1 .029-.07.9.9 0 0 1 .715-.446c.524-.035 1.071.351 1.682 1.181.742 1.003 1.378 1.519 1.752 1.767.464-1.843 2.226-8.858 2.601-10.784.252-1.302 1.029-1.503 1.469-1.506h.013a1.539 1.539 0 0 1 1.171.548 1.668 1.668 0 0 1 .377 1.359l-.567 3.384 1.904-4.518a1.837 1.837 0 0 1 3.391-.015c.188.449.19.954.006 1.404l-2.376 5.969 3.225-3.955a1.457 1.457 0 0 1 2.497.598c.09.341.052.704-.106 1.02l-2.842 5.116 1.121-.717a1.325 1.325 0 0 1 1.854.441 1.326 1.326 0 0 1-.151 1.558c-1.523 1.702-6.679 7.28-9.957 8.751a52.858 52.858 0 0 1-12.216 23.384.36.36 0 0 1-.264.112Zm-11.556-15.33c1.5 5.414 4.691 12.18 11.449 14.556a52.18 52.18 0 0 0 11.936-23.068.355.355 0 0 1 .211-.25c3.209-1.32 8.783-7.428 9.867-8.64a.615.615 0 0 0 .162-.41.617.617 0 0 0-.636-.613.614.614 0 0 0-.311.096l-2.305 1.472a.353.353 0 0 1-.542-.243.353.353 0 0 1 .041-.227l3.525-6.344a.756.756 0 0 0 .022-.676.737.737 0 0 0-.945-.369.738.738 0 0 0-.297.218l-4.691 5.742a.355.355 0 0 1-.605-.354l3.224-8.105a1.126 1.126 0 0 0-.624-1.438 1.122 1.122 0 0 0-1.453.587l-3.082 7.313a.354.354 0 0 1-.424.199.358.358 0 0 1-.253-.395l1.066-6.376a.983.983 0 0 0-.217-.781.838.838 0 0 0-.638-.3c-.161 0-.598 0-.778.93-.433 2.234-2.628 10.9-2.722 11.268a.355.355 0 0 1-.464.247c-.044-.016-1.107-.412-2.427-2.21-.63-.855-.98-.898-1.062-.894a.189.189 0 0 0-.126.062c-.706 2.518 1.222 5.338 2.44 6.806a.353.353 0 0 1-.034.486c-5.972 5.442-12.465 9.376-19.307 11.71Z"/><path fill="#fff" d="M80.664 75.762c1.516-2.477 1.08-8.423-.615-11.311-1.714-2.925-7.61-11.289-7.61-11.289-2.912 2.28 1.428 9.001 1.428 9.001-5.039 3.227-2.208 6.651-2.208 6.651-2.033 4.229.558 5.67 2.103 6.147-3.365 4.518-8.48 13.076-8.45 23.966 4.268 1.251 12.07 2.393 18.925-2.769-1.933-2.983-3.426-8.945-3.573-20.396Z"/><path fill="#0F0F0F" d="M72.448 100.329a26.095 26.095 0 0 1-7.238-1.067.352.352 0 0 1-.256-.34c-.026-10.238 4.395-18.528 8.234-23.79-.882-.341-1.853-.959-2.338-2.062-.496-1.132-.364-2.55.398-4.217a4.272 4.272 0 0 1-.686-2.987c.22-1.398 1.172-2.679 2.828-3.81-.832-1.374-3.966-6.985-1.165-9.174a.356.356 0 0 1 .51.076c.06.084 5.925 8.411 7.628 11.313 1.64 2.795 2.239 8.859.663 11.586.136 9.947 1.316 16.712 3.506 20.102a.354.354 0 0 1-.084.485c-3.976 2.983-8.26 3.885-12 3.885Zm-6.784-1.675c4.044 1.14 11.511 2.191 18.088-2.588-2.158-3.597-3.316-10.422-3.444-20.296 0-.067.018-.133.054-.19 1.384-2.264 1.056-8.087-.618-10.945-1.495-2.548-6.25-9.346-7.362-10.931-2.044 2.284 1.744 8.209 1.78 8.272a.356.356 0 0 1-.107.485c-1.66 1.063-2.603 2.245-2.802 3.513a3.582 3.582 0 0 0 .668 2.614.355.355 0 0 1 .047.38c-.747 1.553-.907 2.835-.477 3.814.464 1.061 1.545 1.58 2.368 1.831a.356.356 0 0 1 .181.553c-3.8 5.107-8.322 13.31-8.376 23.488Z"/><path fill="#0F0F0F" d="M77.011 73.559a.357.357 0 0 1-.233-.088c-.1-.087-2.465-2.172-1.375-4.51.87-1.867.738-2.084 0-3.288l-.097-.161a2.82 2.82 0 0 1 .01-2.98.355.355 0 0 1 .535-.061l3.397 3.144a.356.356 0 1 1-.485.521l-3.05-2.82a2.082 2.082 0 0 0 .193 1.825l.097.162c.828 1.355 1.024 1.84.036 3.958-.864 1.852 1.176 3.657 1.197 3.675a.356.356 0 0 1-.233.624l.008-.001ZM73.707 70.781a1.516 1.516 0 0 1-1.09-.457l-1.22-1.262a.356.356 0 0 1 .51-.493l1.22 1.26a.808.808 0 0 0 1.088.063.356.356 0 0 1 .45.55c-.271.22-.61.34-.958.34Z"/><path fill="#fff" d="M190.335 253.994c.073.411 12.588 18.48 12.588 18.48l-10.108 2.641-9.955-15.565 7.475-5.556Z"/><path fill="#0F0F0F" d="M192.815 275.469a.352.352 0 0 1-.3-.161l-9.954-15.565a.354.354 0 0 1 .087-.476l7.468-5.556a.36.36 0 0 1 .343-.045.343.343 0 0 1 .206.217c.341.698 7.674 11.359 12.542 18.39a.365.365 0 0 1 .041.325.356.356 0 0 1-.243.22l-10.093 2.64a.322.322 0 0 1-.097.011Zm-9.478-15.831 9.638 15.068 9.359-2.447c-5.042-7.279-10.838-15.703-12.103-17.749l-6.894 5.128Z"/><path fill="#fff" d="M192.766 270.051s1.176-5.283 6.941-3.77c0 0 12.294 12.388 18 23.406 1.618 3.115-1.243 6.692-4.645 5.823-7.962-2.019-20.757-6.955-29.666-18.726 0 0 1.101-5.693 3.943-8.734l5.427 2.001Z"/><path fill="#0F0F0F" d="M214.086 296c-.375 0-.748-.047-1.111-.139-8.803-2.231-21.129-7.313-29.864-18.857a.35.35 0 0 1-.065-.281c.046-.236 1.155-5.823 4.033-8.909a.349.349 0 0 1 .382-.091l5.071 1.863c.239-.718.904-2.264 2.426-3.191 1.314-.809 2.938-.956 4.834-.459a.35.35 0 0 1 .161.093c.123.125 12.396 12.554 18.064 23.494a4.464 4.464 0 0 1-.167 4.332 4.455 4.455 0 0 1-3.77 2.138l.006.007Zm-30.31-19.297c8.604 11.29 20.715 16.274 29.373 18.469a3.736 3.736 0 0 0 3.835-1.295 3.733 3.733 0 0 0 .408-4.027c-5.399-10.423-16.874-22.237-17.869-23.251-1.655-.416-3.062-.282-4.183.399-1.74 1.058-2.221 3.109-2.226 3.13a.364.364 0 0 1-.063.137.362.362 0 0 1-.258.14.372.372 0 0 1-.148-.021l-5.204-1.912c-2.373 2.688-3.469 7.332-3.665 8.231Z"/><path fill="#0F0F0F" d="M212.965 292.029c-4.341 0-13.715-1.926-27.285-15.01a.357.357 0 0 1 .244-.576.356.356 0 0 1 .241.065c18.463 17.802 29.191 14.557 29.298 14.517a.354.354 0 0 1 .435.229.358.358 0 0 1-.211.445c-.118.042-1.044.33-2.722.33ZM204.599 282.251a.353.353 0 0 1-.272-.126.356.356 0 0 1 .041-.5l4.409-3.743a.358.358 0 0 1 .569.304.354.354 0 0 1-.11.238l-4.407 3.743a.36.36 0 0 1-.23.084ZM201.484 279.003a.355.355 0 0 1-.222-.634l4.819-3.815a.348.348 0 0 1 .267-.09.355.355 0 0 1 .174.646l-4.81 3.816a.352.352 0 0 1-.228.077Z"/><path fill="#fff" d="m159.425 212.852-8.382 6.436 7.36 9.999 7.847-7.481-6.825-8.954Z"/><path fill="#0F0F0F" d="M158.402 229.643h-.03a.358.358 0 0 1-.256-.144l-7.358-10.006a.355.355 0 0 1 .069-.485l8.383-6.436a.357.357 0 0 1 .498.066l6.826 8.953a.354.354 0 0 1-.037.472l-7.847 7.483a.361.361 0 0 1-.248.097Zm-6.868-10.286 6.915 9.395 7.325-6.985-6.416-8.411-7.824 6.001Z"/><path fill="#fff" d="m163.388 228.114-7.79-6.308-1.467-5.287c-4.093-.102-8.683 2.947-11.202 4.907a3.105 3.105 0 0 0-.894 3.829c4.155 8.441 13.526 21.611 18.061 27.82 1.144 1.563 3.619 1.057 4.018-.837 2.011-9.5-.726-24.124-.726-24.124Z"/><path fill="#0F0F0F" d="M161.908 254.35a2.581 2.581 0 0 1-2.103-1.072c-5.003-6.839-13.999-19.551-18.089-27.866a3.475 3.475 0 0 1 .994-4.266c2.409-1.876 7.038-4.985 11.225-4.985h.204a.36.36 0 0 1 .339.259l1.437 5.176 7.703 6.239a.35.35 0 0 1 .124.21c.028.147 2.719 14.801.725 24.254a2.558 2.558 0 0 1-1.987 1.986 2.69 2.69 0 0 1-.572.065Zm-8.048-37.479c-3.955.036-8.392 3.028-10.715 4.835a2.767 2.767 0 0 0-.792 3.397c4.068 8.265 13.042 20.94 18.029 27.761a1.9 1.9 0 0 0 .861.658c.345.131.72.158 1.08.077a1.839 1.839 0 0 0 1.44-1.436c1.868-8.849-.445-22.391-.704-23.85l-7.685-6.232a.363.363 0 0 1-.119-.181l-1.395-5.029Z"/><path fill="#0F0F0F" d="M160.776 249.64a.357.357 0 0 1-.291-.152l-12.41-17.886a6.415 6.415 0 0 1-1.066-4.335c.309-2.98-.895-6.035-.906-6.066a.357.357 0 0 1 .205-.444.354.354 0 0 1 .455.181c.051.131 1.279 3.251.952 6.402a5.72 5.72 0 0 0 .943 3.857l12.409 17.885a.345.345 0 0 1 .058.266.35.35 0 0 1-.349.292ZM167.777 127.93s23.94 18.897 36.597 36.584a16.512 16.512 0 0 1 1.354 16.903c-5.823 11.842-18.44 33.076-37.951 43.672l-16.388-20.943s14.33-15.851 24.864-23.06l-26.863-30.108-6.679-15.121 25.066-7.927Z"/><path fill="#0F0F0F" d="M179.293 269.067c.849 1.495 20.152-12.616 20.152-12.616s-14.767-17.284-38.238-105.137c-.273-1.02-4.6-22.507-4.6-22.507l-32.072 16.809s5.634 36.973 54.758 123.451Z"/><path fill="#fff" d="M165.063 165.758a.353.353 0 0 1-.342-.262l-3.017-11.026a7.21 7.21 0 0 1 1.005-5.985l1.847-2.699a.356.356 0 0 1 .494-.093.357.357 0 0 1 .092.494l-1.846 2.699a6.497 6.497 0 0 0-.906 5.396l3.015 11.022a.34.34 0 0 1-.033.27.362.362 0 0 1-.09.105.38.38 0 0 1-.124.062.345.345 0 0 1-.095.017ZM184.654 223.419a.36.36 0 0 1-.324-.215c-.073-.172-7.358-17.259-10.061-25.845a.354.354 0 0 1 .11-.378.355.355 0 0 1 .392-.042.354.354 0 0 1 .176.207c2.693 8.552 9.964 25.608 10.029 25.779a.354.354 0 0 1-.322.494ZM116.986 88.718c.61 12.8 2.426 44.739 5.765 57.568a2.74 2.74 0 0 0 1.481 1.789 2.75 2.75 0 0 0 2.322.017c7.643-3.45 29.349-12.656 45.865-13.91a3.631 3.631 0 0 0 3.328-3.135 3.649 3.649 0 0 0-.148-1.627c-3.166-9.668-10.236-32.364-12.227-47.877-.567-4.41-4.07-7.808-8.426-8.148-8.038-.624-21.029-.161-33.254 6.702a9.35 9.35 0 0 0-4.706 8.62Z"/><path fill="#0F0F0F" d="M125.417 148.693a3.123 3.123 0 0 1-2.4-1.124 3.091 3.091 0 0 1-.61-1.186c-3.342-12.828-5.152-44.588-5.78-57.647-.174-3.666 1.744-7.174 4.889-8.94 12.096-6.786 24.875-7.413 33.457-6.745 4.488.35 8.168 3.906 8.751 8.456 2.001 15.591 9.208 38.63 12.212 47.811a3.99 3.99 0 0 1-3.49 5.226c-16.266 1.228-37.409 10.11-45.745 13.872a3.137 3.137 0 0 1-1.284.277Zm-8.076-59.991c.622 13.038 2.428 44.741 5.757 57.495a2.401 2.401 0 0 0 3.314 1.572c8.369-3.778 29.602-12.697 45.984-13.933a3.29 3.29 0 0 0 2.481-1.45 3.278 3.278 0 0 0 .387-2.846c-3.012-9.202-10.233-32.292-12.242-47.942-.541-4.219-3.948-7.515-8.1-7.839-8.494-.661-21.123-.042-33.052 6.656-2.915 1.636-4.691 4.887-4.529 8.287ZM131.556 56.947s-2.493-5.07-3.373-5.96c-.88-.892-1.557-1.836 1.029-3.559 2.587-1.722 9.343-6.35 13.484-6.32 4.141.028 7.042 2.644 5.767 4.528-1.275 1.884-1.859 2.68-.877 2.801.982.122 1.526 1.219-1.258 2.831-2.784 1.613-12.486 8.605-14.772 5.68Z"/><path fill="#fff" d="m145.734 74.566-1.446-7.691c4.351-2.185 2.6-5.217 1.941-7.636-.7-2.604-2.856-8.258-2.856-8.258-3.572 2.103-10.576 1.474-10.576 1.474s1.004 1.6.427 2.387c-.578.788-.217 3.818-.217 3.818s-1.25-1.176-2.588-.277c-.752.506.107 2.666.725 3.882.618 1.216 1.941 1.456 1.941 1.456s.22-.131.666.936l-2.376 12.518-4.665 1.941 10.38 1.402a12.424 12.424 0 0 0 9.22-2.448l3.721-2.847-4.297-.657Z"/><path fill="#0F0F0F" d="M138.733 80.967c-.564 0-1.126-.038-1.684-.113l-10.38-1.401a.352.352 0 0 1-.307-.306.357.357 0 0 1 .218-.374l4.489-1.863 2.319-12.223a2.358 2.358 0 0 0-.351-.626h-.008c-.061-.012-1.508-.285-2.197-1.639-.54-1.06-1.682-3.608-.605-4.331a2.31 2.31 0 0 1 2.362-.135c-.076-1.019-.115-2.678.354-3.32.353-.486-.215-1.627-.441-1.991a.362.362 0 0 1-.054-.187.363.363 0 0 1 .196-.319.356.356 0 0 1 .191-.036c.068 0 6.931.59 10.362-1.425a.357.357 0 0 1 .513.18c.087.23 2.171 5.7 2.868 8.29.086.324.191.647.301.99.7 2.195 1.569 4.916-2.194 6.933l1.351 7.172 4.044.61a.358.358 0 0 1 .29.263.356.356 0 0 1-.128.37l-3.721 2.848a12.875 12.875 0 0 1-7.788 2.633Zm-10.667-2.033 9.078 1.224a12.145 12.145 0 0 0 8.952-2.378l3.054-2.338-3.47-.523a.354.354 0 0 1-.296-.285l-1.446-7.684a.353.353 0 0 1 .189-.383c3.496-1.756 2.773-4.018 2.076-6.205-.114-.355-.22-.69-.311-1.023-.582-2.167-2.208-6.53-2.703-7.841-3.073 1.567-8.009 1.456-9.773 1.363.278.613.567 1.561.102 2.2-.342.466-.295 2.365-.153 3.559a.35.35 0 0 1-.191.36.354.354 0 0 1-.404-.06c-.043-.038-1.066-.97-2.146-.24-.324.216-.093 1.586.841 3.42.466.913 1.42 1.196 1.643 1.25a.446.446 0 0 1 .162.025c.186.062.448.246.82 1.132a.34.34 0 0 1 .021.204l-2.374 12.518a.349.349 0 0 1-.214.262l-3.457 1.443Zm5.207-14.912a.285.285 0 0 1-.043.023.271.271 0 0 0 .043-.031v.008Z"/><path fill="#0F0F0F" d="M140.279 68.14c-3.972 0-5.449-3.073-5.469-3.107a.357.357 0 0 1 .647-.3c.089.19 2.218 4.53 8.695 1.814a.353.353 0 0 1 .491.327.358.358 0 0 1-.218.328c-1.613.676-2.986.938-4.146.938Z"/><path fill="#fff" d="m129.892 54.482 1.331 3.882s8.461 5.058 18.536 3.009a2.522 2.522 0 0 0 1.605-1.103 2.516 2.516 0 0 0 .336-1.919l-.777-6.834a2.507 2.507 0 0 0-2.043-1.922 2.512 2.512 0 0 0-.985.035l-18.003 4.852Z"/><path fill="#0F0F0F" d="M144.889 62.215c-7.809 0-13.773-3.5-13.844-3.542a.354.354 0 0 1-.162-.19l-1.331-3.881a.352.352 0 0 1 .022-.283.36.36 0 0 1 .222-.177l18.01-4.852a2.871 2.871 0 0 1 3.466 2.154.231.231 0 0 1 0 .037l.775 6.817a2.866 2.866 0 0 1-.397 2.18 2.873 2.873 0 0 1-1.83 1.249 24.92 24.92 0 0 1-4.931.488Zm-13.371-4.089c1.024.571 8.97 4.775 18.174 2.904a2.161 2.161 0 0 0 1.673-2.588.251.251 0 0 1 0-.04l-.775-6.812a2.16 2.16 0 0 0-2.588-1.605l-17.632 4.748 1.148 3.393Z"/><path fill="#0F0F0F" d="M139.47 59.113a.352.352 0 0 1-.355-.355c0-.095.038-.185.104-.252l3.226-3.225a.356.356 0 0 1 .503.502l-3.235 3.226a.356.356 0 0 1-.243.104ZM144.288 58.487a.357.357 0 0 1-.253-.104.362.362 0 0 1 0-.503l4.834-4.826a.352.352 0 0 1 .501 0 .352.352 0 0 1 0 .501l-4.832 4.836a.35.35 0 0 1-.25.096ZM84.562 253.721h-.01c-11.114-.296-18.168-3.216-20.98-8.672l-60.96-118.16a.36.36 0 0 1-.023-.271.35.35 0 0 1 .176-.206.345.345 0 0 1 .27-.022.352.352 0 0 1 .207.175c3.33 6.454 13.274 9.239 28.757 8.054 15.235-1.165 34.778-6.074 56.502-14.195a9.295 9.295 0 0 1 11.508 4.446l52.69 102.146a9.293 9.293 0 0 1-1.761 10.902 9.288 9.288 0 0 1-3.308 2.088 314.666 314.666 0 0 1-18.423 6.132.343.343 0 0 1-.142.021.378.378 0 0 1-.14-.037.355.355 0 0 1 .08-.665 311.534 311.534 0 0 0 18.381-6.119 8.598 8.598 0 0 0 5.048-4.942 8.584 8.584 0 0 0-.365-7.055L99.376 125.194a8.581 8.581 0 0 0-10.626-4.104c-25.703 9.603-47.697 14.501-63.192 14.501-9.472.001-16.515-1.825-20.507-5.522l59.145 114.647c2.652 5.142 9.705 8.01 20.381 8.295a.354.354 0 0 1 .328.359.355.355 0 0 1-.338.351h-.005Z"/><path fill="#fff" d="M114.125 250.104a.354.354 0 0 1-.35-.316.353.353 0 0 1 .271-.386c4.762-1.081 9.796-2.409 14.966-3.945a.355.355 0 0 1 .202.681 237.761 237.761 0 0 1-15.01 3.958.415.415 0 0 1-.079.008Z"/><path fill="#0F0F0F" d="M95.398 253.266a.357.357 0 0 1-.034-.708c5.662-.563 11.94-1.618 18.682-3.156a.354.354 0 0 1 .427.266.353.353 0 0 1-.266.428c-6.771 1.536-13.086 2.604-18.763 3.168l-.046.002Z"/><path fill="#fff" d="M86.387 253.745c-.622 0-1.234-.008-1.834-.024a.364.364 0 0 1-.263-.103.366.366 0 0 1-.105-.263.356.356 0 0 1 .387-.344 87.213 87.213 0 0 0 10.793-.453.355.355 0 0 1 .294.572.358.358 0 0 1-.225.135c-3.21.318-6.245.48-9.047.48Z"/><path fill="#0F0F0F" d="M183.341 223.787a9.343 9.343 0 0 1-8.3-5.014.35.35 0 0 1-.035-.28.35.35 0 0 1 .318-.256.365.365 0 0 1 .266.095.354.354 0 0 1 .084.118 8.63 8.63 0 0 0 11.441 3.754 460.747 460.747 0 0 0 6.944-3.507c30.284-15.622 57.002-33.7 75.228-50.905 18.127-17.11 25.674-31.254 21.25-39.826L231.402 13.331c1.171 8.942-6.659 21.79-22.573 36.811-18.279 17.25-45.051 35.37-75.394 51.022a438.56 438.56 0 0 1-6.704 3.387 8.573 8.573 0 0 0-3.81 11.62l17.405 33.757a.354.354 0 0 1-.167.45.355.355 0 0 1-.464-.127l-17.406-33.748a9.292 9.292 0 0 1-.573-7.155 9.28 9.28 0 0 1 4.699-5.426 461.309 461.309 0 0 0 6.695-3.382c30.285-15.624 57.002-33.702 75.23-50.908C226.457 32.537 234.003 18.4 229.6 9.827l-.01-.02a.354.354 0 0 1 .631-.323l60.942 118.15c4.581 8.88-3.016 23.322-21.394 40.668-18.278 17.25-45.049 35.37-75.391 51.022a443.871 443.871 0 0 1-6.956 3.51 9.199 9.199 0 0 1-4.081.954Z"/><path fill="#fff" d="M175.358 218.961a.348.348 0 0 1-.189-.05.346.346 0 0 1-.134-.142l-11.924-23.113a.359.359 0 0 1 .28-.545.373.373 0 0 1 .145.022.348.348 0 0 1 .206.2l11.925 23.114a.356.356 0 0 1-.162.485.351.351 0 0 1-.147.029Z"/><path fill="#0F0F0F" d="M163.433 195.849a.36.36 0 0 1-.323-.193l-5.073-9.834a.359.359 0 0 1-.022-.271.355.355 0 0 1 .653-.053l5.073 9.833a.378.378 0 0 1 .041.135.368.368 0 0 1-.015.14.357.357 0 0 1-.18.21.342.342 0 0 1-.154.033Z"/><path fill="#fff" d="M158.361 186.011a.35.35 0 0 1-.324-.192l-18.342-35.564a.365.365 0 0 1 .025-.414.35.35 0 0 1 .255-.131.356.356 0 0 1 .351.221l18.358 35.566a.356.356 0 0 1-.162.485.357.357 0 0 1-.161.029Z"/><path fill="#0F0F0F" d="M140.231 116.157a.357.357 0 0 1-.162-.672c48.029-24.776 86.472-55.675 95.66-76.89a.351.351 0 0 1 .191-.221.357.357 0 0 1 .456.504c-9.248 21.35-47.822 52.392-95.988 77.238a.346.346 0 0 1-.157.041ZM146.024 128.419a.355.355 0 0 1-.321-.503.36.36 0 0 1 .159-.168c48.032-24.777 86.476-55.676 95.663-76.89a.354.354 0 0 1 .647.282c-9.247 21.351-47.823 52.394-95.988 77.239a.342.342 0 0 1-.16.04ZM167.192 132.367a.353.353 0 0 1-.343-.264.36.36 0 0 1 .015-.229.364.364 0 0 1 .152-.172c11.993-6.793 23.258-13.936 33.484-21.219a.35.35 0 0 1 .265-.062.352.352 0 0 1 .291.409.332.332 0 0 1-.049.129.339.339 0 0 1-.095.101c-10.247 7.298-21.523 14.457-33.545 21.26a.345.345 0 0 1-.175.047ZM208.979 105.022a.357.357 0 0 1-.336-.243.35.35 0 0 1-.003-.217.348.348 0 0 1 .124-.179c19.938-15.243 33.631-29.896 38.552-41.262a.353.353 0 0 1 .448-.144c.08.034.144.097.18.176a.352.352 0 0 1 .019.25c-4.971 11.475-18.741 26.23-38.775 41.544a.353.353 0 0 1-.209.075ZM188.143 135.615a.349.349 0 0 1-.213-.072.35.35 0 0 1-.128-.185.36.36 0 0 1 .009-.225.362.362 0 0 1 .143-.175c11.913-7.44 22.743-15.075 32.19-22.698a.36.36 0 0 1 .513.042.351.351 0 0 1 .029.405.336.336 0 0 1-.096.106c-9.468 7.641-20.321 15.295-32.259 22.747a.347.347 0 0 1-.188.055ZM226.856 107.464a.359.359 0 0 1-.333-.231.357.357 0 0 1 .1-.393c13.486-11.708 22.646-22.585 26.486-31.456a.364.364 0 0 1 .192-.212.359.359 0 0 1 .286-.001.352.352 0 0 1 .169.495c-3.882 8.969-13.102 19.934-26.672 31.711a.353.353 0 0 1-.228.087ZM169.199 177.471a.357.357 0 0 1-.162-.671 473.849 473.849 0 0 0 6.579-3.464.355.355 0 0 1 .464.154.356.356 0 0 1-.128.472 440.019 440.019 0 0 1-6.59 3.468.343.343 0 0 1-.163.041Z"/><path fill="#fff" d="M175.781 174.004a.35.35 0 0 1-.341-.27.357.357 0 0 1 .18-.398 427.973 427.973 0 0 0 20.399-11.675.357.357 0 1 1 .37.607 428.04 428.04 0 0 1-20.433 11.694.346.346 0 0 1-.175.042Z"/><path fill="#0F0F0F" d="M196.199 162.32a.355.355 0 0 1-.33-.485.356.356 0 0 1 .144-.174c17.47-10.659 33.052-22.005 45.048-32.813 11.913-10.734 20.087-20.74 23.636-28.937a.354.354 0 0 1 .484-.229.36.36 0 0 1 .197.218.361.361 0 0 1-.034.292c-7.373 17.024-33.16 40.23-68.967 62.076a.351.351 0 0 1-.178.052Z"/><path fill="#fff" d="M174.993 189.731a.354.354 0 0 1-.321-.503.35.35 0 0 1 .159-.168 435.186 435.186 0 0 0 22.175-12.252.354.354 0 1 1 .361.611 440.863 440.863 0 0 1-22.211 12.273.359.359 0 0 1-.163.039Z"/><path fill="#0F0F0F" d="M197.182 177.471a.355.355 0 0 1-.181-.662c37.725-22.321 65.884-47.082 73.486-64.636a.354.354 0 0 1 .647.281c-7.659 17.686-35.929 42.579-73.777 64.967a.348.348 0 0 1-.175.05ZM180.785 201.997a.355.355 0 0 1-.321-.504.35.35 0 0 1 .159-.168c4.429-2.285 8.85-4.66 13.139-7.058a.352.352 0 0 1 .271-.032.353.353 0 0 1 .246.439.358.358 0 0 1-.169.214 450.065 450.065 0 0 1-13.162 7.068.346.346 0 0 1-.163.041Z"/><path fill="#0F0F0F" d="M193.938 194.933a.357.357 0 0 1-.175-.666c41.903-23.425 74.295-50.835 82.522-69.832a.366.366 0 0 1 .191-.222.37.37 0 0 1 .146-.033.353.353 0 0 1 .358.396.357.357 0 0 1-.048.142c-4.047 9.372-13.88 20.856-28.414 33.21-14.702 12.5-33.516 25.28-54.407 36.96a.36.36 0 0 1-.173.045ZM222.327 229.036a.357.357 0 0 1-.342-.26.35.35 0 0 1 .012-.226.346.346 0 0 1 .146-.174 533.931 533.931 0 0 0 3.628-2.224.36.36 0 0 1 .394.014.36.36 0 0 1 .138.369.35.35 0 0 1-.158.22 497.842 497.842 0 0 1-3.633 2.229.357.357 0 0 1-.185.052Zm7.242-4.488a.357.357 0 0 1-.323-.473.353.353 0 0 1 .132-.174 499.21 499.21 0 0 0 3.585-2.296.367.367 0 0 1 .275-.064.359.359 0 0 1 .282.437.363.363 0 0 1-.172.224 520.974 520.974 0 0 1-3.59 2.299.345.345 0 0 1-.189.043v.004Zm7.151-4.63a.354.354 0 0 1-.197-.647c1.192-.789 2.37-1.578 3.536-2.368a.359.359 0 0 1 .478.106.36.36 0 0 1-.08.483c-1.167.789-2.347 1.58-3.541 2.371a.356.356 0 0 1-.196.052v.003Zm7.053-4.781a.348.348 0 0 1-.209-.07.352.352 0 0 1-.128-.18.352.352 0 0 1 .135-.397 370.06 370.06 0 0 0 3.482-2.449.363.363 0 0 1 .405-.024.364.364 0 0 1 .163.228.362.362 0 0 1-.155.375c-1.149.809-2.323 1.644-3.491 2.454a.353.353 0 0 1-.207.06l.005.003Zm6.946-4.945a.354.354 0 0 1-.344-.245.354.354 0 0 1 .133-.402 356.383 356.383 0 0 0 3.422-2.534.352.352 0 0 1 .496.071.354.354 0 0 1-.071.497 292.438 292.438 0 0 1-3.428 2.539.347.347 0 0 1-.203.071l-.005.003Z"/><path fill="#fff" d="M254.143 207.651a.355.355 0 0 1-.213-.647l.085-.064a.366.366 0 0 1 .27-.066.367.367 0 0 1 .237.143.364.364 0 0 1-.078.507l-.086.063a.343.343 0 0 1-.215.064Zm3.475-2.647a.36.36 0 0 1-.338-.241.357.357 0 0 1 .119-.397c1.133-.87 2.252-1.755 3.349-2.63a.355.355 0 0 1 .443.557 284.623 284.623 0 0 1-3.357 2.636.352.352 0 0 1-.216.075Z"/><path fill="#0F0F0F" d="M263.726 200.14a.352.352 0 0 1-.205-.065.351.351 0 0 1-.02-.565 264.468 264.468 0 0 0 3.268-2.727.37.37 0 0 1 .122-.066.383.383 0 0 1 .139-.014.367.367 0 0 1 .307.251.356.356 0 0 1-.114.379 260.1 260.1 0 0 1-3.277 2.734.357.357 0 0 1-.22.073Z"/><path fill="#fff" d="M269.868 194.933a.352.352 0 0 1-.266-.121.354.354 0 0 1 .032-.502 206.273 206.273 0 0 0 3.169-2.838.344.344 0 0 1 .256-.095.376.376 0 0 1 .136.032.364.364 0 0 1 .185.201c.017.044.024.09.022.137a.376.376 0 0 1-.032.136.38.38 0 0 1-.082.113 240.501 240.501 0 0 1-3.179 2.848.35.35 0 0 1-.241.089Z"/><path fill="#0F0F0F" d="M273.047 192.09a.345.345 0 0 1-.262-.117.357.357 0 0 1 .022-.501c.694-.636 1.376-1.269 2.046-1.899a.354.354 0 0 1 .482.034.357.357 0 0 1 .004.483c-.673.633-1.358 1.268-2.055 1.906a.359.359 0 0 1-.237.094Zm5.118-4.863a.322.322 0 0 1-.137-.027.357.357 0 0 1-.116-.581 153.497 153.497 0 0 0 2.985-3.028.355.355 0 0 1 .479.007.351.351 0 0 1 .033.479c-.97 1.006-1.971 2.03-2.997 3.044a.36.36 0 0 1-.252.106h.005Zm5.892-6.157a.37.37 0 0 1-.193-.058.351.351 0 0 1-.07-.536c.97-1.074 1.904-2.154 2.785-3.209a.358.358 0 0 1 .615.201.358.358 0 0 1-.07.255 126.767 126.767 0 0 1-2.803 3.235.359.359 0 0 1-.275.112h.011Zm5.46-6.545a.357.357 0 0 1-.352-.309.358.358 0 0 1 .07-.263 80.476 80.476 0 0 0 2.493-3.433.357.357 0 0 1 .634.14.36.36 0 0 1-.047.262 78.124 78.124 0 0 1-2.515 3.463.358.358 0 0 1-.288.142l.005-.002Zm4.802-7.037a.36.36 0 0 1-.309-.18.357.357 0 0 1 .005-.357 50.56 50.56 0 0 0 2.012-3.721.361.361 0 0 1 .663.037.362.362 0 0 1-.015.274 50.675 50.675 0 0 1-2.042 3.774.357.357 0 0 1-.319.173h.005ZM36.517 294.425c-1.171 0-2.331-.02-3.447-.057a.355.355 0 0 1 .022-.71c1.369.045 2.795.063 4.248.053a.357.357 0 1 1 0 .711l-.823.003Zm5.087-.11a.355.355 0 0 1-.34-.348.356.356 0 0 1 .325-.362c1.377-.059 2.805-.141 4.245-.245a.368.368 0 0 1 .144.01.365.365 0 0 1 .22.178.358.358 0 0 1-.172.49.36.36 0 0 1-.14.031c-1.446.105-2.883.188-4.268.246h-.014Zm-12.779-.191h-.032a66.702 66.702 0 0 1-4.256-.485.347.347 0 0 1-.136-.043.35.35 0 0 1-.181-.363.357.357 0 0 1 .419-.298c1.34.194 2.75.353 4.206.474a.356.356 0 0 1 .34.368.352.352 0 0 1-.368.34l.008.007Zm21.28-.417a.36.36 0 0 1-.344-.339.355.355 0 0 1 .31-.37c1.374-.136 2.798-.293 4.228-.469a.357.357 0 0 1 .087.705 175.38 175.38 0 0 1-4.246.471l-.036.002Zm-29.707-.824a.337.337 0 0 1-.078 0 41.804 41.804 0 0 1-4.141-1.145.352.352 0 0 1-.241-.311.355.355 0 0 1 .466-.362c1.337.447 2.695.825 4.071 1.132a.355.355 0 0 1-.078.702v-.016Zm38.174-.208a.357.357 0 0 1-.05-.707c1.378-.198 2.794-.416 4.206-.647a.358.358 0 0 1 .264.062.346.346 0 0 1 .144.231.354.354 0 0 1-.293.407 217.243 217.243 0 0 1-4.274.654h.003Zm8.412-1.372a.354.354 0 0 1-.063-.704 266.44 266.44 0 0 0 4.183-.794.358.358 0 0 1 .398.284.354.354 0 0 1-.26.413c-1.405.279-2.817.545-4.195.796l-.063.005Zm-54.629-1.173a.338.338 0 0 1-.162-.039 21.999 21.999 0 0 1-3.67-2.285.354.354 0 0 1 .175-.632.358.358 0 0 1 .262.072 21.404 21.404 0 0 0 3.558 2.211.359.359 0 0 1 .185.401.356.356 0 0 1-.346.272h-.002Zm62.992-.485a.355.355 0 0 1-.073-.702c1.365-.291 2.764-.602 4.157-.919a.36.36 0 0 1 .384.132.358.358 0 0 1 .01.405.353.353 0 0 1-.232.156c-1.396.323-2.799.629-4.169.922a.339.339 0 0 1-.078.009v-.003Zm8.312-1.894a.358.358 0 0 1-.348-.313.353.353 0 0 1 .264-.387c1.36-.324 2.75-.676 4.133-1.029a.34.34 0 0 1 .138-.007.36.36 0 0 1 .293.263.355.355 0 0 1-.256.431c-1.383.355-2.776.701-4.14 1.032a.342.342 0 0 1-.084.01Zm8.26-2.103a.356.356 0 0 1-.092-.698c1.353-.364 2.736-.743 4.106-1.133a.355.355 0 0 1 .422.251.354.354 0 0 1-.23.433c-1.372.385-2.749.766-4.114 1.133a.36.36 0 0 1-.092.014Zm-86.169-.77a.338.338 0 0 1-.158-.037.348.348 0 0 1-.126-.103 14.368 14.368 0 0 1-1.537-2.559 14.469 14.469 0 0 1-.52-1.278.355.355 0 0 1 .224-.439.358.358 0 0 1 .448.204c.144.411.309.819.485 1.214.4.856.889 1.669 1.456 2.426a.351.351 0 0 1 .035.371.351.351 0 0 1-.317.196l.01.005Zm94.378-1.541a.357.357 0 0 1-.356-.304.354.354 0 0 1 .255-.392 414.34 414.34 0 0 0 4.083-1.216.359.359 0 0 1 .443.237.357.357 0 0 1-.237.442c-1.371.417-2.734.823-4.088 1.218a.341.341 0 0 1-.1.015Zm8.157-2.476a.36.36 0 0 1-.347-.302.353.353 0 0 1 .24-.392c1.346-.424 2.699-.856 4.057-1.294a.356.356 0 0 1 .22.676c-1.361.443-2.715.874-4.063 1.294a.393.393 0 0 1-.107.018Zm8.109-2.637a.357.357 0 0 1-.303-.538.353.353 0 0 1 .19-.154c1.337-.45 2.681-.908 4.031-1.375a.357.357 0 0 1 .233.673c-1.353.467-2.701.925-4.044 1.375a.354.354 0 0 1-.107.019ZM2.946 276.961a.359.359 0 0 1-.358-.338 17.354 17.354 0 0 1-.023-.874c.005-1.155.108-2.308.31-3.445a.358.358 0 0 1 .413-.308.358.358 0 0 1 .287.429 19.484 19.484 0 0 0-.3 3.324c0 .282.009.562.022.838a.353.353 0 0 1-.337.372l-.014.002Zm1.357-8.358a.36.36 0 0 1-.336-.471 37.684 37.684 0 0 1 1.638-3.975.354.354 0 0 1 .34-.205.354.354 0 0 1 .248.117.363.363 0 0 1 .093.258.353.353 0 0 1-.034.135 36.746 36.746 0 0 0-1.606 3.9.359.359 0 0 1-.343.241Zm3.623-7.702a.355.355 0 0 1-.306-.534 61.347 61.347 0 0 1 2.294-3.618.354.354 0 0 1 .589.399 61.038 61.038 0 0 0-2.265 3.578.353.353 0 0 1-.312.175Zm4.774-7.057a.351.351 0 0 1-.306-.175.356.356 0 0 1 .024-.395 97.902 97.902 0 0 1 2.664-3.346.356.356 0 0 1 .547.454 97.579 97.579 0 0 0-2.646 3.323.364.364 0 0 1-.28.143l-.003-.004Zm5.443-6.559a.36.36 0 0 1-.195-.056.36.36 0 0 1-.158-.354.353.353 0 0 1 .087-.182c.924-1.032 1.901-2.087 2.902-3.138a.355.355 0 0 1 .515.485 158.773 158.773 0 0 0-2.888 3.12.348.348 0 0 1-.26.13l-.003-.005Zm5.88-6.171a.357.357 0 0 1-.35-.426.357.357 0 0 1 .099-.182c.988-.971 2.02-1.978 3.073-2.97a.36.36 0 0 1 .406-.094.357.357 0 0 1 .08.61 180.101 180.101 0 0 0-3.058 2.958.348.348 0 0 1-.247.109l-.003-.005Zm6.195-5.857a.353.353 0 0 1-.346-.437.354.354 0 0 1 .108-.181 171.779 171.779 0 0 1 3.195-2.832.362.362 0 0 1 .262-.098.35.35 0 0 1 .322.247.356.356 0 0 1-.118.388c-1.08.938-2.152 1.888-3.185 2.821a.354.354 0 0 1-.235.097l-.003-.005Zm6.435-5.593a.357.357 0 0 1-.23-.628 252.48 252.48 0 0 1 2.002-1.658.353.353 0 0 1 .267-.096.36.36 0 0 1 .32.257.36.36 0 0 1-.135.388 237.93 237.93 0 0 0-1.998 1.654.348.348 0 0 1-.223.088l-.003-.005ZM69.02 25.173c-2.948-5.163-9.43-6.882-14.36-3.748-4.807 3.056-6.263 9.47-3.295 14.483a10.437 10.437 0 0 0 6.088 4.783 7.618 7.618 0 0 1 4.507 3.559l.592 1.035a1.72 1.72 0 0 0 2.38.652l6.028-3.6a1.803 1.803 0 0 0 .61-2.443l-.589-1.03a7.744 7.744 0 0 1-.833-5.683 10.837 10.837 0 0 0-1.129-8.008Z"/><path fill="#fff" d="M71.535 50.404c-2.055 1.228-4.712.495-5.93-1.637l-1.431-2.507 7.45-4.448 1.432 2.507c1.218 2.132.543 4.853-1.52 6.085Z"/><path fill="#0F0F0F" d="M69.394 51.355c-.396 0-.79-.05-1.172-.152a4.739 4.739 0 0 1-2.92-2.264l-1.432-2.507a.356.356 0 0 1 .126-.486l7.45-4.45a.356.356 0 0 1 .486.13l1.431 2.507c1.312 2.296.574 5.241-1.645 6.566a4.529 4.529 0 0 1-2.324.656Zm-4.733-4.968 1.258 2.204a4.025 4.025 0 0 0 2.485 1.925 3.822 3.822 0 0 0 2.955-.417c1.89-1.133 2.514-3.643 1.393-5.605l-1.255-2.192-6.836 4.084ZM51.258 14.912a.355.355 0 0 1-.31-.178l-5.223-9.111a.356.356 0 0 1 .617-.355l5.223 9.112a.356.356 0 0 1-.307.532ZM34.013 48.714a.356.356 0 0 1-.178-.665l11.873-6.793a.356.356 0 0 1 .354.616l-11.873 6.793a.369.369 0 0 1-.176.049ZM76.474 24.725a.356.356 0 0 1-.175-.665l12.28-6.848a.356.356 0 0 1 .346.62l-12.28 6.848a.345.345 0 0 1-.17.045ZM42.444 27.934a.333.333 0 0 1-.096-.015l-11.55-3.257a.355.355 0 0 1 .192-.683l11.553 3.258a.356.356 0 0 1-.097.697h-.002ZM66.594 14.881a.353.353 0 0 1-.343-.45l3.37-12.213a.354.354 0 1 1 .684.19l-3.37 12.205a.356.356 0 0 1-.34.268ZM275.104 55.887a.352.352 0 0 1-.324-.211.358.358 0 0 1 .06-.382c.448-.492.889-.982 1.323-1.469a.359.359 0 0 1 .488-.013.357.357 0 0 1 .043.485c-.431.491-.874.983-1.328 1.476a.364.364 0 0 1-.262.114Zm4.11-4.69a.354.354 0 0 1-.353-.402.354.354 0 0 1 .08-.182c.928-1.11 1.828-2.223 2.67-3.306a.367.367 0 0 1 .237-.134.356.356 0 0 1 .323.57c-.848 1.09-1.75 2.21-2.685 3.326a.357.357 0 0 1-.272.121v.007Zm5.225-6.734a.357.357 0 0 1-.29-.561 83.538 83.538 0 0 0 2.378-3.515.355.355 0 0 1 .6.382 86.005 86.005 0 0 1-2.399 3.545.35.35 0 0 1-.289.143v.006Zm4.574-7.188a.353.353 0 0 1-.305-.175.36.36 0 0 1-.005-.352 52.264 52.264 0 0 0 1.907-3.779.355.355 0 0 1 .642.032.353.353 0 0 1 .005.26 53.685 53.685 0 0 1-1.933 3.831.357.357 0 0 1-.311.177v.006Zm3.481-7.764a.347.347 0 0 1-.232-.086.348.348 0 0 1-.123-.244.379.379 0 0 1 .017-.137c.446-1.331.794-2.693 1.04-4.075a.36.36 0 0 1 .41-.274.355.355 0 0 1 .291.397 29.574 29.574 0 0 1-1.066 4.175.352.352 0 0 1-.337.234v.01Zm1.374-8.366a.354.354 0 0 1-.355-.345 15.264 15.264 0 0 0-.679-4.095.362.362 0 0 1-.023-.142.361.361 0 0 1 .249-.323.355.355 0 0 1 .452.252c.431 1.39.67 2.832.71 4.286a.353.353 0 0 1-.208.335.356.356 0 0 1-.135.03l-.011.002Zm-88.346-6.426a.355.355 0 0 1-.103-.694c1.359-.42 2.734-.836 4.083-1.236a.352.352 0 0 1 .282.017.361.361 0 0 1 .193.36.35.35 0 0 1-.142.244.359.359 0 0 1-.131.06c-1.348.398-2.719.81-4.077 1.233a.326.326 0 0 1-.105.016Zm85.771-1.582a.359.359 0 0 1-.292-.152 14.9 14.9 0 0 0-2.85-3.012.355.355 0 0 1 .445-.553 15.639 15.639 0 0 1 2.986 3.158.355.355 0 0 1-.086.495.349.349 0 0 1-.203.067v-.003Zm-77.595-.836a.356.356 0 0 1-.098-.697c1.377-.39 2.762-.77 4.116-1.132a.355.355 0 0 1 .184.685c-1.352.363-2.734.743-4.105 1.133a.343.343 0 0 1-.097.014v-.003Zm8.233-2.203a.356.356 0 0 1-.357-.31.357.357 0 0 1 .27-.389c1.391-.35 2.785-.692 4.145-1.014a.36.36 0 0 1 .285.029.357.357 0 0 1 .014.61.357.357 0 0 1-.137.052c-1.359.323-2.75.661-4.136 1.012a.393.393 0 0 1-.084.01Zm8.297-1.959a.356.356 0 0 1-.076-.702c1.404-.309 2.809-.603 4.178-.877a.353.353 0 0 1 .364.15.352.352 0 0 1-.096.493.349.349 0 0 1-.128.053c-1.365.273-2.766.568-4.166.875a.416.416 0 0 1-.075.008h-.001Zm54.554-.364a.352.352 0 0 1-.162-.037 27.574 27.574 0 0 0-3.895-1.579.356.356 0 0 1 .218-.676c1.371.438 2.707.978 3.996 1.618a.354.354 0 0 1 .184.4.357.357 0 0 1-.346.273l.005.001Zm-46.19-1.305a.354.354 0 0 1-.35-.324.355.355 0 0 1 .287-.381c1.419-.256 2.836-.495 4.206-.714a.357.357 0 0 1 .111.702c-1.37.217-2.782.456-4.196.71a.403.403 0 0 1-.058.007Zm8.411-1.331a.353.353 0 0 1-.047-.707 157.86 157.86 0 0 1 4.242-.508.358.358 0 0 1 .365.177.362.362 0 0 1 .03.279.354.354 0 0 1-.319.251c-1.375.144-2.795.315-4.224.506l-.047.002Zm29.709-.038a.37.37 0 0 1-.073-.008 51.817 51.817 0 0 0-4.178-.672.356.356 0 1 1 .1-.7c1.477.177 2.902.407 4.236.682a.354.354 0 0 1 .279.383.355.355 0 0 1-.35.32l-.014-.005Zm-21.233-.854a.357.357 0 0 1-.26-.59.356.356 0 0 1 .235-.12c1.455-.108 2.889-.189 4.268-.242a.364.364 0 0 1 .369.341.353.353 0 0 1-.341.369 122.35 122.35 0 0 0-4.243.24l-.028.002Zm12.779-.194h-.019a82.954 82.954 0 0 0-4.243-.124.357.357 0 0 1-.236-.598.357.357 0 0 1 .236-.112c1.469 0 2.912.048 4.278.124a.358.358 0 0 1 .325.364.358.358 0 0 1-.344.346h.003ZM30.454 174.561a78.58 78.58 0 0 1-4.277-.193.343.343 0 0 1-.14-.031.358.358 0 0 1-.08-.601.363.363 0 0 1 .272-.076c1.354.1 2.78.162 4.238.191a.355.355 0 0 1 0 .71h-.013Zm4.262-.02a.354.354 0 0 1-.335-.487.357.357 0 0 1 .326-.224c1.371-.036 2.8-.102 4.244-.194a.355.355 0 1 1 .045.708c-1.455.094-2.89.162-4.27.196l-.01.001Zm8.505-.542a.354.354 0 0 1-.26-.583.356.356 0 0 1 .227-.125 149.72 149.72 0 0 0 4.226-.471.358.358 0 0 1 .353.176.356.356 0 0 1-.264.528c-1.438.181-2.866.341-4.246.474l-.035.001Zm-21.262-.084h-.05a50.872 50.872 0 0 1-4.22-.791.352.352 0 0 1-.264-.426.354.354 0 0 1 .427-.264c1.293.307 2.7.569 4.155.778a.355.355 0 0 1-.05.707l.002-.004Zm29.722-.97a.354.354 0 0 1-.35-.329.357.357 0 0 1 .297-.378c1.372-.207 2.784-.437 4.206-.683a.358.358 0 0 1 .397.292.354.354 0 0 1-.274.409c-1.422.246-2.84.485-4.216.684l-.06.005Zm-37.992-1.029a.323.323 0 0 1-.123-.022 25.67 25.67 0 0 1-3.917-1.809.355.355 0 0 1 .352-.616 24.959 24.959 0 0 0 3.811 1.758.356.356 0 0 1-.123.689Zm46.39-.428a.354.354 0 0 1-.066-.704 236.2 236.2 0 0 0 4.17-.852.353.353 0 0 1 .364.538.355.355 0 0 1-.215.157c-1.41.301-2.817.589-4.183.854a.325.325 0 0 1-.07.005v.002Zm8.34-1.78a.353.353 0 0 1-.352-.315.358.358 0 0 1 .27-.387c1.36-.313 2.75-.647 4.141-.991a.359.359 0 0 1 .27.04.362.362 0 0 1 .16.219.352.352 0 0 1-.133.371.346.346 0 0 1-.125.059c-1.393.344-2.789.679-4.15.995a.388.388 0 0 1-.077.008l-.005.001Zm8.275-2.049a.355.355 0 0 1-.09-.699 312.07 312.07 0 0 0 4.11-1.114.357.357 0 0 1 .19.686c-1.374.381-2.76.757-4.12 1.114a.346.346 0 0 1-.09.011v.002Zm-70.298-.039a.357.357 0 0 1-.243-.095 14.89 14.89 0 0 1-2.71-3.397.356.356 0 0 1 .617-.354 14.144 14.144 0 0 0 2.58 3.235.352.352 0 0 1-.044.552.357.357 0 0 1-.2.061v-.002Zm78.512-2.245a.355.355 0 0 1-.1-.697c1.345-.393 2.719-.809 4.08-1.218a.355.355 0 0 1 .402.503.353.353 0 0 1-.194.176c-1.364.416-2.74.827-4.09 1.222a.328.328 0 0 1-.098.012v.002Zm8.154-2.494a.358.358 0 0 1-.349-.301.357.357 0 0 1 .24-.393c1.342-.431 2.693-.869 4.053-1.313a.354.354 0 1 1 .221.674c-1.362.45-2.714.889-4.058 1.317a.35.35 0 0 1-.107.016Zm-90.84-2.541a.36.36 0 0 1-.346-.278 16.836 16.836 0 0 1-.385-3.643c0-.225 0-.453.012-.681a.36.36 0 0 1 .105-.261.344.344 0 0 1 .263-.103.357.357 0 0 1 .342.388c0 .222-.012.44-.012.657-.004 1.173.12 2.343.37 3.489a.356.356 0 0 1-.349.432Zm98.934-.13a.355.355 0 0 1-.307-.537.354.354 0 0 1 .193-.153c1.331-.455 2.672-.922 4.023-1.401a.357.357 0 1 1 .237.671 456.07 456.07 0 0 1-4.031 1.401.343.343 0 0 1-.115.019Zm-98.73-8.318a.355.355 0 0 1-.348-.434c.321-1.4.734-2.777 1.236-4.123a.36.36 0 0 1 .182-.216.357.357 0 0 1 .485.462 31.886 31.886 0 0 0-1.209 4.032.36.36 0 0 1-.346.279Zm2.9-7.994a.357.357 0 0 1-.359-.334.352.352 0 0 1 .036-.175 57.616 57.616 0 0 1 2.019-3.782.355.355 0 0 1 .636.095.357.357 0 0 1-.022.261 56.459 56.459 0 0 0-1.994 3.735.354.354 0 0 1-.317.2h.002Zm4.256-7.382a.376.376 0 0 1-.195-.058.356.356 0 0 1-.1-.486 91.988 91.988 0 0 1 2.448-3.508.354.354 0 0 1 .498-.077.358.358 0 0 1 .077.498 83.77 83.77 0 0 0-2.427 3.48.354.354 0 0 1-.3.151Zm5.03-6.881a.363.363 0 0 1-.216-.074.354.354 0 0 1-.056-.499c.86-1.082 1.779-2.191 2.719-3.298a.35.35 0 0 1 .245-.14.35.35 0 0 1 .271.083.346.346 0 0 1 .125.254.36.36 0 0 1-.1.264c-.94 1.1-1.848 2.205-2.704 3.279a.35.35 0 0 1-.285.136v-.005Zm5.524-6.491a.356.356 0 0 1-.263-.594 152.31 152.31 0 0 1 2.912-3.129.353.353 0 0 1 .402-.123.355.355 0 0 1 .112.608 162.51 162.51 0 0 0-2.895 3.117.345.345 0 0 1-.12.092.346.346 0 0 1-.148.034v-.005Zm5.876-6.175a.363.363 0 0 1-.327-.22.356.356 0 0 1 .076-.387 202.86 202.86 0 0 1 3.048-2.992.355.355 0 0 1 .485.512c-1.035.995-2.056 2-3.036 2.981a.354.354 0 0 1-.246.11v-.004Zm6.147-5.914a.356.356 0 0 1-.33-.225.355.355 0 0 1 .089-.39 254.914 254.914 0 0 1 3.157-2.874.346.346 0 0 1 .12-.08.347.347 0 0 1 .283.006.345.345 0 0 1 .189.211.353.353 0 0 1-.118.392 235.42 235.42 0 0 0-3.148 2.866.357.357 0 0 1-.247.099l.005-.005Zm6.352-5.685a.357.357 0 0 1-.231-.625 313.3 313.3 0 0 1 3.246-2.771.358.358 0 0 1 .57.307.359.359 0 0 1-.114.239 248.27 248.27 0 0 0-3.235 2.762.352.352 0 0 1-.24.092l.004-.004ZM207.386 235.545a.358.358 0 0 1-.356-.348l-.041-1.889a.355.355 0 0 1 .71-.015l.041 1.888a.357.357 0 0 1-.348.364h-.006ZM207.534 242.156a.358.358 0 0 1-.356-.348l-.04-1.889a.368.368 0 0 1 .017-.144.37.37 0 0 1 .189-.21.367.367 0 0 1 .283-.006.364.364 0 0 1 .198.203.362.362 0 0 1 .023.142l.041 1.889a.377.377 0 0 1-.024.137.364.364 0 0 1-.324.226h-.007ZM203.248 237.932a.356.356 0 0 1 0-.71l1.862-.014a.35.35 0 0 1 .267.095.35.35 0 0 1 .113.26.361.361 0 0 1-.237.335.368.368 0 0 1-.143.02l-1.862.014ZM209.764 237.887a.354.354 0 0 1-.332-.355.355.355 0 0 1 .332-.355l1.861-.014a.354.354 0 0 1 .332.355.355.355 0 0 1-.332.355l-1.86.014h-.001ZM127.395 34.491c-.396 0-.789-.074-1.158-.218a3.255 3.255 0 0 1-1.815-1.762 3.333 3.333 0 0 1 1.663-4.352 3.175 3.175 0 0 1 2.469-.065 3.245 3.245 0 0 1 1.813 1.76 3.332 3.332 0 0 1-1.661 4.353 3.181 3.181 0 0 1-1.311.284Zm-1.02-5.682a2.615 2.615 0 0 0-1.294 3.423 2.532 2.532 0 0 0 1.42 1.378 2.466 2.466 0 0 0 1.92-.049 2.623 2.623 0 0 0 1.294-3.424 2.532 2.532 0 0 0-2.385-1.548c-.33.009-.655.084-.955.22Z"/></g><defs><clipPath id="a"><path fill="#fff" d="M0 0h300v296H0z"/></clipPath></defs></svg>