<svg aria-hidden="true" style="position: absolute; width: 0; height: 0; overflow: hidden;" version="1.1" xmlns="http://www.w3.org/2000/svg" xmlns:xlink="http://www.w3.org/1999/xlink">
<defs>
<symbol id="icon-Ellipse-15" viewBox="0 0 32 32">
<path fill="#e3ffa8" style="fill: var(--color1, #e3ffa8)" d="M32 16c0 8.837-7.163 16-16 16s-16-7.163-16-16c0-8.837 7.163-16 16-16s16 7.163 16 16z"></path>
</symbol>
<symbol id="icon-arrow-left" viewBox="0 0 32 32">
<path fill="none" stroke="#b6b6b6" style="stroke: var(--color1, #b6b6b6)" stroke-linejoin="round" stroke-linecap="round" stroke-miterlimit="10" stroke-width="1.3333" d="M12.76 7.907l-8.093 8.093 8.093 8.093"></path>
<path fill="none" stroke="#b6b6b6" style="stroke: var(--color1, #b6b6b6)" stroke-linejoin="round" stroke-linecap="round" stroke-miterlimit="10" stroke-width="1.3333" d="M27.333 16h-22.44"></path>
</symbol>
<symbol id="icon-trash-03" viewBox="0 0 32 32">
<path fill="none" stroke="#e3ffa8" style="stroke: var(--color1, #e3ffa8)" stroke-linejoin="round" stroke-linecap="round" stroke-miterlimit="4" stroke-width="2.4" d="M12 4h8M13.333 14v6.667M18.667 14v6.667"></path>
<path fill="none" stroke="#e3ffa8" style="stroke: var(--color1, #e3ffa8)" stroke-linejoin="round" stroke-linecap="round" stroke-miterlimit="4" stroke-width="2.4" d="M4 8h24M25.333 8l-0.935 14.026c-0.14 2.104-0.21 3.156-0.665 3.954-0.4 0.702-1.004 1.267-1.731 1.62-0.826 0.4-1.881 0.4-3.99 0.4h-4.025c-2.109 0-3.163 0-3.99-0.4-0.727-0.352-1.331-0.917-1.731-1.62-0.455-0.798-0.525-1.85-0.665-3.954l-0.935-14.026"></path>
</symbol>
<symbol id="icon-arrow-right" viewBox="0 0 32 32">
<path fill="none" stroke="#b6b6b6" style="stroke: var(--color1, #b6b6b6)" stroke-linejoin="round" stroke-linecap="round" stroke-miterlimit="10" stroke-width="2" d="M19.24 7.906l8.093 8.093-8.093 8.093"></path>
<path fill="none" stroke="#b6b6b6" style="stroke: var(--color1, #b6b6b6)" stroke-linejoin="round" stroke-linecap="round" stroke-miterlimit="10" stroke-width="2" d="M4.666 16h22.44"></path>
</symbol>
</defs>
</svg>
